<svg width="435" height="395" viewBox="0 0 435 395" fill="none" xmlns="http://www.w3.org/2000/svg">
    <rect x="0.5" y="35.5" width="126" height="194" fill="#C4C4C4" stroke="black"/>
    <path d="M197 367V239C219.667 239 271.4 249.4 297 291C329 343 311 272 335 201C359 130 426 197 433 291C438.6 366.2 414.667 363 402 352L197 367Z" fill="#C4C4C4" stroke="black"/>
    <path d="M414.5 52C414.5 66.0757 403.408 78.9449 385.189 88.325C366.996 97.6917 341.828 103.5 314 103.5C286.172 103.5 261.004 97.6917 242.811 88.325C224.592 78.9449 213.5 66.0757 213.5 52C213.5 37.9243 224.592 25.0551 242.811 15.675C261.004 6.30825 286.172 0.5 314 0.5C341.828 0.5 366.996 6.30825 385.189 15.675C403.408 25.0551 414.5 37.9243 414.5 52Z" fill="#C4C4C4" stroke="black"/>
    <path d="M37.2324 394L78.5 289.363L119.768 394H37.2324Z" fill="#C4C4C4" stroke="black"/>
</svg>
